<svg xmlns="http://www.w3.org/2000/svg" width="40" height="30" viewBox="0 0 40 30" fill="none">
  <path d="M14.9241 22.6083C15.7968 22.6083 16.5043 21.8843 16.5043 20.9912C16.5043 20.0982 15.7968 19.3742 14.9241 19.3742C14.0514 19.3742 13.344 20.0982 13.344 20.9912C13.344 21.8843 14.0514 22.6083 14.9241 22.6083Z" fill="white"/>
  <path d="M32.3088 12.6496C35.3086 12.1194 37.8988 10.321 37.8988 6.6866C37.8988 2.24057 33.9989 0.510947 30.6537 0.510947L25.3387 0.5C24.3057 0.5 24.4891 0.510947 24.4784 0.515639C24.4677 0.52033 24.5823 0.625108 24.6312 0.687662H29.827C31.8259 0.687662 34.0494 2.27341 34.5842 6.6866C35.0931 10.8809 31.861 12.0819 29.9156 12.5354L28.7252 12.5933H8.25212C6.07019 12.5811 3.97235 13.4538 2.41753 15.0204C1.62196 15.818 0.996424 16.7756 0.580341 17.8328C0.164259 18.89 -0.0333568 20.024 -5.55625e-05 21.1632C0.0281127 23.4029 0.924551 25.5394 2.49205 27.1027C3.2682 27.8768 4.18574 28.4869 5.19228 28.8981C6.19881 29.3093 7.27464 29.5136 8.35833 29.4993C9.44203 29.485 10.5124 29.2525 11.5082 28.8149C12.5041 28.3773 13.406 27.7433 14.1624 26.949C14.9188 26.1548 15.515 25.2158 15.9168 24.1858C16.3186 23.1557 16.5183 22.0548 16.5043 20.9458H16.4019C16.4047 23.0931 15.5981 25.1588 14.15 26.7128C12.7018 28.2667 10.7238 29.1892 8.62768 29.2881C6.53158 29.3871 4.47895 28.6549 2.89716 27.2439C1.31538 25.833 0.326332 23.8521 0.135953 21.7137C-0.305692 16.8219 3.51476 12.6981 8.25212 12.6981H29.6986C30.4826 12.7465 31.2406 12.8263 31.2406 12.8263C32.8528 13.0265 36.2392 14.5199 36.2392 18.9644C36.2392 23.1461 34.0112 24.8257 31.9068 25.0118C31.806 25.029 29.8514 25.0243 29.8514 25.0243C29.7827 25.065 29.8759 25.1698 29.9737 25.2042H31.7525C35.7258 25.2042 39.5844 23.4042 39.5844 18.9582C39.5844 14.5121 35.6539 12.6496 32.3088 12.6496Z" fill="white"/>
  <path d="M8.74576 19.6135C8.63707 19.6431 8.52688 19.6666 8.41568 19.6839C7.08005 23.1244 5.4724 24.6444 3.29321 25.0276V25.209H10.6377V25.0323C8.65866 25.0276 8.17422 22.2846 8.74576 19.6135Z" fill="white"/>
  <path d="M19.9122 25.0275V25.2089H27.4981L27.3453 25.029C25.2058 25.029 24.3913 22.5628 23.4958 20.3046C22.5682 18.0417 16.0459 0.5 16.0459 0.5H15.7403C15.7403 0.5 15.1764 1.9794 14.3099 4.25325L14.3955 4.45967C14.4643 4.63639 20.5327 20.8316 20.878 21.784C21.8087 24.3581 21.5672 25.0275 19.9122 25.0275Z" fill="white"/>
  <path d="M24.6038 25.0275V25.2089H32.1897L32.0368 25.029C29.8974 25.029 29.0829 22.5628 28.1858 20.3046C27.2567 18.0417 20.7405 0.5 20.7405 0.5H20.4349L19.0045 4.23761C19.0351 4.30798 25.2227 20.8285 25.5757 21.7809C26.4987 24.3581 26.2573 25.0275 24.6038 25.0275Z" fill="white"/>
</svg>